# xmcd
#
# Track frame offsets: 
#        150
#        26913
#        49823
#        79684
#        105024
#        124371
#        149200
#        167010
#        184773
#        204745
#        227628
#        251449
#        269782
#        286251
#
# Disc length: 3934 seconds
#
# Revision: 0
# Processed by: cddbd v1.5.2PL0 Copyright (c) Steve Scherf et al.
# Submitted via: ExactAudioCopy v0.99pb4
#
DISCID=d00f5c0e
DTITLE=Labi Siffre - The Last Songs
DYEAR=1998
DGENRE=Soul
TTITLE0=Everything
TTITLE1=Samaritans
TTITLE2=Face To Face (A Paper Regret)
TTITLE3=This Is It
TTITLE4=Lose Myself In You
TTITLE5=Cling To The Ledge
TTITLE6=The Life I Got
TTITLE7=The Dead Don't Matter
TTITLE8=A Kiss In The Mirror
TTITLE9=Sparrow In The Storm
TTITLE10=Little Boy Baby Blue
TTITLE11=Rainbow Moon
TTITLE12=Why Isn't Love Enough
TTITLE13=The Song To Sing
EXTD=
EXTT0=
EXTT1=
EXTT2=
EXTT3=
EXTT4=
EXTT5=
EXTT6=
EXTT7=
EXTT8=
EXTT9=
EXTT10=
EXTT11=
EXTT12=
EXTT13=
PLAYORDER=
